<?xml version="1.0" encoding="UTF-8"?>
<svg version="1.1" xmlns="http://www.w3.org/2000/svg" width="512" height="512">
<path d="M0 0 C11.3605389 7.55817274 17.01689481 17.75099818 20.99291992 30.49267578 C21.61315782 32.47694577 22.26390162 34.44917891 22.91992188 36.421875 C28.14970782 52.42851246 28.14970782 52.42851246 26.359375 59.58984375 C19.74259311 67.90808384 5.75642151 70.29400249 -4.015625 73.40234375 C-5.88803829 74.00432253 -7.7602653 74.60688102 -9.63232422 75.20996094 C-14.87785997 76.89650151 -20.12719493 78.5709079 -25.37774658 80.24176025 C-28.94739854 81.37780257 -32.51646414 82.51567305 -36.08544922 83.65380859 C-65.24716341 92.94978298 -94.43338065 102.16827766 -123.62310791 111.37585449 C-143.03470863 117.49948826 -162.43353952 123.66259936 -181.828125 129.83984375 C-203.52835224 136.75144324 -225.2362904 143.63772194 -246.95617676 150.48736572 C-260.95012285 154.90065743 -274.94083175 159.32391496 -288.92578125 163.765625 C-289.64400747 163.99372675 -290.3622337 164.2218285 -291.10222435 164.45684242 C-298.13559128 166.69068613 -305.16866503 168.92544974 -312.20117855 171.16197872 C-314.1581397 171.78426489 -316.11518043 172.40630008 -318.07225037 173.02824402 C-320.44998547 173.78393128 -322.82757266 174.54008415 -325.20497131 175.29682922 C-328.41129799 176.31564228 -331.61916864 177.32934543 -334.828125 178.33984375 C-336.02578491 178.71788147 -337.22344482 179.09591919 -338.45739746 179.4854126 C-339.63257935 179.85261414 -340.80776123 180.21981567 -342.01855469 180.59814453 C-343.61700226 181.09908127 -343.61700226 181.09908127 -345.2477417 181.61013794 C-347.828125 182.33984375 -347.828125 182.33984375 -349.828125 182.33984375 C-349.333125 183.88671875 -349.333125 183.88671875 -348.828125 185.46484375 C-347.7590982 188.8055525 -347.79481569 191.84653017 -347.828125 195.33984375 C-347.02573776 195.33794515 -346.22335053 195.33604655 -345.39664853 195.33409041 C-297.84024056 195.22219905 -250.28384656 195.13641047 -202.72733331 195.0845171 C-197.01711522 195.07826357 -191.30689739 195.07179196 -185.59667969 195.06518555 C-184.45987856 195.06387399 -183.32307744 195.06256244 -182.1518278 195.06121115 C-163.7451079 195.03945485 -145.33846609 195.00003205 -126.93179251 194.95407977 C-108.04472183 194.90732145 -89.15769205 194.87954966 -70.27056587 194.86940128 C-58.6162566 194.86254085 -46.96216803 194.8408731 -35.3079267 194.80026142 C-27.31607605 194.77383081 -19.3243395 194.76584351 -11.33244832 194.77233686 C-6.72155137 194.77553923 -2.11104009 194.77063171 2.49978828 194.74381638 C6.72441485 194.71942683 10.94839759 194.71829286 15.17305423 194.73534928 C16.69813412 194.73745629 18.2232547 194.73116172 19.74825488 194.71542784 C29.3721364 194.62194086 37.69037453 195.27983711 45.07356727 202.09530753 C51.06763632 208.41615861 52.6220953 214.93007008 52.5460968 223.37026978 C52.55007121 224.25729281 52.55404561 225.14431584 52.55814046 226.05821836 C52.56773473 229.0189577 52.55596237 231.97921576 52.54418945 234.93994141 C52.54661846 237.06763893 52.55033885 239.19533532 52.55525208 241.32302856 C52.56465308 247.0960911 52.55524029 252.86898383 52.54191995 258.6420331 C52.53058975 264.69245708 52.5347144 270.7428729 52.53666687 276.79330444 C52.53754975 286.9600501 52.52647399 297.12672909 52.50805664 307.29345703 C52.48692329 319.02618103 52.48337196 330.75880711 52.4896186 342.49154627 C52.49532766 353.79548784 52.48964624 365.09939513 52.47844505 376.40333176 C52.47381598 381.20442721 52.47291792 386.00550159 52.4750309 390.80659866 C52.47692433 396.4717671 52.46872918 402.13683692 52.4529705 407.80198288 C52.44875244 409.87349794 52.44786027 411.94502306 52.45066071 414.01654053 C52.49051737 448.7931448 52.49051737 448.7931448 39.546875 462.71484375 C26.42776897 474.93053829 11.29178255 475.64704675 -5.7930603 475.60054016 C-7.38148923 475.60356607 -8.9699167 475.60745775 -10.55834162 475.61213273 C-14.89383219 475.62236473 -19.22923961 475.62024322 -23.56473684 475.61595213 C-28.25196302 475.61347617 -32.93916963 475.62250982 -37.62638855 475.62998962 C-46.79763032 475.64271427 -55.96884277 475.64453313 -65.14009188 475.64218936 C-72.59725964 475.64040363 -80.05441853 475.64216131 -87.51158524 475.6464138 C-88.57443131 475.64700899 -89.63727739 475.64760418 -90.73233093 475.64821741 C-92.89175728 475.6494292 -95.05118363 475.65064334 -97.21060999 475.65185978 C-117.44423195 475.6627266 -137.67783722 475.66057683 -157.91146012 475.65447494 C-176.40522579 475.6493059 -194.89893879 475.66056243 -213.39269404 475.67957316 C-232.40221513 475.69896363 -251.41171132 475.70720547 -270.42124236 475.7034499 C-281.08559823 475.70153978 -291.74990927 475.70400707 -302.41425705 475.71816444 C-311.49240641 475.73009458 -320.57048332 475.73146477 -329.6486337 475.71937428 C-334.27620749 475.71349723 -338.90364889 475.71235361 -343.53121376 475.72437668 C-347.7751886 475.7352746 -352.01892112 475.73208599 -356.26288481 475.71811499 C-357.79035585 475.7154788 -359.31784612 475.71780037 -360.84529822 475.72585086 C-377.22509717 475.80612394 -391.5880906 473.70745495 -403.9765625 462.35546875 C-412.9712885 452.56374171 -415.9957721 440.63059392 -415.94837952 427.68386841 C-415.94923394 426.82527942 -415.95008837 425.96669042 -415.95096868 425.08208358 C-415.95261247 422.21241584 -415.94712015 419.34280687 -415.94165039 416.47314453 C-415.94136826 414.41317242 -415.94152677 412.3532002 -415.9420929 410.29322815 C-415.94237984 404.70490989 -415.93649966 399.11661308 -415.92951894 393.52829981 C-415.92326835 387.68666346 -415.92268025 381.84502663 -415.92149353 376.00338745 C-415.91838525 364.94317594 -415.91017863 353.8829743 -415.90014404 342.82276714 C-415.88896729 330.23036588 -415.88346851 317.63796415 -415.87844861 305.04555917 C-415.86799562 279.14364855 -415.8504059 253.2417467 -415.828125 227.33984375 C-416.488125 227.33984375 -417.148125 227.33984375 -417.828125 227.33984375 C-425.93470934 219.25703238 -429.29224463 208.96428454 -429.390625 197.77734375 C-429.3527989 192.22123043 -428.94692127 187.76030182 -426.578125 182.65234375 C-423.3946204 175.54214707 -426.73184924 168.39903384 -428.828125 161.33984375 C-431.72506466 148.3922971 -427.63507935 136.30134082 -420.828125 125.33984375 C-412.68608423 114.08306256 -397.7597716 109.61064166 -385.02734375 105.6953125 C-383.72471689 105.28523548 -382.4224241 104.87409605 -381.12043762 104.46199036 C-377.64559655 103.36520177 -374.16648286 102.28262489 -370.68637085 101.20269775 C-366.99255762 100.05349295 -363.30313783 98.89034852 -359.61328125 97.72851562 C-353.57414068 95.82857076 -347.5328396 93.9356723 -341.48974609 92.04833984 C-330.2364273 88.53318573 -318.99582751 84.97798984 -307.7550354 81.42300415 C-304.30024789 80.3310325 -300.84491484 79.24080436 -297.3894043 78.15112305 C-279.19233133 72.41191633 -261.00880531 66.63070373 -242.828125 60.83984375 C-221.18289451 53.94546484 -199.52932154 47.07852642 -177.86395264 40.24761963 C-159.79478425 34.5498422 -141.73763753 28.81512535 -123.68560791 23.06335449 C-101.62035138 16.03298028 -79.54831643 9.0256853 -57.453125 2.08984375 C-56.36219543 1.74701355 -55.27126587 1.40418335 -54.14727783 1.05096436 C-51.11684488 0.09900287 -48.08588463 -0.85125623 -45.0546875 -1.80078125 C-44.16950439 -2.07886627 -43.28432129 -2.35695129 -42.37231445 -2.64346313 C-41.56189697 -2.89679413 -40.75147949 -3.15012512 -39.91650391 -3.41113281 C-39.21844635 -3.62981018 -38.52038879 -3.84848755 -37.80117798 -4.0737915 C-25.02553653 -7.87053991 -11.46049162 -6.72749853 0 0 Z " fill="#55A0FE" transform="translate(444.828125,21.66015625)"/>
<path d="M0 0 C11.3605389 7.55817274 17.01689481 17.75099818 20.99291992 30.49267578 C21.61315782 32.47694577 22.26390162 34.44917891 22.91992188 36.421875 C28.14970782 52.42851246 28.14970782 52.42851246 26.359375 59.58984375 C19.74259311 67.90808384 5.75642151 70.29400249 -4.015625 73.40234375 C-5.88803829 74.00432253 -7.7602653 74.60688102 -9.63232422 75.20996094 C-14.87785997 76.89650151 -20.12719493 78.5709079 -25.37774658 80.24176025 C-28.94739854 81.37780257 -32.51646414 82.51567305 -36.08544922 83.65380859 C-65.24716341 92.94978298 -94.43338065 102.16827766 -123.62310791 111.37585449 C-143.03470863 117.49948826 -162.43353952 123.66259936 -181.828125 129.83984375 C-203.52835224 136.75144324 -225.2362904 143.63772194 -246.95617676 150.48736572 C-260.95012285 154.90065743 -274.94083175 159.32391496 -288.92578125 163.765625 C-289.64400747 163.99372675 -290.3622337 164.2218285 -291.10222435 164.45684242 C-298.13559128 166.69068613 -305.16866503 168.92544974 -312.20117855 171.16197872 C-314.1581397 171.78426489 -316.11518043 172.40630008 -318.07225037 173.02824402 C-320.44998547 173.78393128 -322.82757266 174.54008415 -325.20497131 175.29682922 C-328.41129799 176.31564228 -331.61916864 177.32934543 -334.828125 178.33984375 C-336.02578491 178.71788147 -337.22344482 179.09591919 -338.45739746 179.4854126 C-339.63257935 179.85261414 -340.80776123 180.21981567 -342.01855469 180.59814453 C-343.61700226 181.09908127 -343.61700226 181.09908127 -345.2477417 181.61013794 C-347.828125 182.33984375 -347.828125 182.33984375 -349.828125 182.33984375 C-349.333125 183.88671875 -349.333125 183.88671875 -348.828125 185.46484375 C-347.7590982 188.8055525 -347.79481569 191.84653017 -347.828125 195.33984375 C-347.02573776 195.33794515 -346.22335053 195.33604655 -345.39664853 195.33409041 C-297.84024056 195.22219905 -250.28384656 195.13641047 -202.72733331 195.0845171 C-197.01711522 195.07826357 -191.30689739 195.07179196 -185.59667969 195.06518555 C-184.45987856 195.06387399 -183.32307744 195.06256244 -182.1518278 195.06121115 C-163.7451079 195.03945485 -145.33846609 195.00003205 -126.93179251 194.95407977 C-108.04472183 194.90732145 -89.15769205 194.87954966 -70.27056587 194.86940128 C-58.6162566 194.86254085 -46.96216803 194.8408731 -35.3079267 194.80026142 C-27.31607605 194.77383081 -19.3243395 194.76584351 -11.33244832 194.77233686 C-6.72155137 194.77553923 -2.11104009 194.77063171 2.49978828 194.74381638 C6.72441485 194.71942683 10.94839759 194.71829286 15.17305423 194.73534928 C16.69813412 194.73745629 18.2232547 194.73116172 19.74825488 194.71542784 C29.3721364 194.62194086 37.69037453 195.27983711 45.07356727 202.09530753 C52.26517632 209.67898557 52.59597466 217.24863412 52.46484375 227.2734375 C52.46182251 228.36724731 52.45880127 229.46105713 52.45568848 230.5880127 C52.4400613 234.65121983 52.39817756 238.71429184 52.359375 242.77734375 C52.2975 251.87296875 52.235625 260.96859375 52.171875 270.33984375 C25.771875 270.33984375 -0.628125 270.33984375 -27.828125 270.33984375 C-26.54108127 266.47871255 -25.43643803 263.30963505 -23.6484375 259.76928711 C-23.22038818 258.91656723 -22.79233887 258.06384735 -22.35131836 257.18528748 C-21.88991455 256.27593948 -21.42851074 255.36659149 -20.953125 254.4296875 C-20.2271814 252.98560265 -20.2271814 252.98560265 -19.48657227 251.51234436 C-17.93756186 248.43207703 -16.38326091 245.35452244 -14.828125 242.27734375 C-13.30215529 239.25342836 -11.77747929 236.22887928 -10.25537109 233.20301819 C-9.31145722 231.3270145 -8.36542788 229.45207248 -7.41650391 227.57859802 C-2.37884644 217.57586842 2.35219613 207.46116939 7.171875 197.33984375 C-23.848125 197.00984375 -54.868125 196.67984375 -86.828125 196.33984375 C-87.488125 198.31984375 -88.148125 200.29984375 -88.828125 202.33984375 C-89.83257067 204.51755662 -90.87743073 206.67689786 -91.953125 208.8203125 C-92.25612015 209.42625244 -92.5591153 210.03219238 -92.87129211 210.65649414 C-93.8526492 212.61561343 -94.84008502 214.57158744 -95.828125 216.52734375 C-96.5120792 217.88771822 -97.19591628 219.24815159 -97.87963867 220.60864258 C-103.07141425 230.92033924 -108.40627127 241.14675874 -113.828125 251.33984375 C-117.128125 257.60984375 -120.428125 263.87984375 -123.828125 270.33984375 C-152.868125 270.33984375 -181.908125 270.33984375 -211.828125 270.33984375 C-202.70530991 252.09421358 -202.70530991 252.09421358 -198.203125 243.96484375 C-197.17767763 242.09934722 -196.15297197 240.23344284 -195.12890625 238.3671875 C-194.5973291 237.39894043 -194.06575195 236.43069336 -193.51806641 235.43310547 C-189.85471035 228.72771378 -186.24937606 221.99083898 -182.63623047 215.25830078 C-182.08209473 214.22688965 -181.52795898 213.19547852 -180.95703125 212.1328125 C-180.47306885 211.23071045 -179.98910645 210.3286084 -179.49047852 209.39916992 C-177.2977333 205.36373297 -175.0639773 201.35151855 -172.828125 197.33984375 C-184.55157288 196.54531933 -196.26847436 195.94489996 -208.01352787 195.5782299 C-213.47184038 195.40200181 -218.91155104 195.16441328 -224.35913086 194.77490234 C-248.43169651 192.18534319 -248.43169651 192.18534319 -269.97158813 200.51080322 C-277.41556073 208.1644984 -282.27989946 217.73432939 -286.83706665 227.28704834 C-289.22395484 232.26722358 -292.21976115 236.6978716 -295.45703125 241.16015625 C-296.31682072 242.42240901 -297.17192889 243.68786797 -298.02148438 244.95703125 C-298.41231201 245.53549805 -298.80313965 246.11396484 -299.20581055 246.70996094 C-300.02680445 247.92597252 -300.84706741 249.14247779 -301.66674805 250.359375 C-302.928273 252.23176118 -304.19239921 254.1023677 -305.45703125 255.97265625 C-306.15900635 257.01309082 -306.86098145 258.05352539 -307.58422852 259.12548828 C-308.32471436 260.18622559 -309.0652002 261.24696289 -309.828125 262.33984375 C-310.21916192 263.0103948 -310.61019884 263.68094585 -311.01308537 264.37181664 C-314.51447006 269.89504081 -314.51447006 269.89504081 -317.97040272 271.06521797 C-320.57497904 271.32468701 -323.07261637 271.3304243 -325.68896484 271.24804688 C-327.15331467 271.24979919 -327.15331467 271.24979919 -328.64724731 271.25158691 C-331.86265108 271.24602885 -335.07430985 271.18388315 -338.2890625 271.12109375 C-340.52249119 271.10616716 -342.75594613 271.09478212 -344.9894104 271.08679199 C-350.85911778 271.05629151 -356.72723362 270.97774402 -362.59631348 270.88916016 C-368.58872955 270.80722507 -374.58140361 270.77076399 -380.57421875 270.73046875 C-392.32633152 270.64474898 -404.07684673 270.50406478 -415.828125 270.33984375 C-415.828125 256.14984375 -415.828125 241.95984375 -415.828125 227.33984375 C-416.488125 227.33984375 -417.148125 227.33984375 -417.828125 227.33984375 C-425.93470934 219.25703238 -429.29224463 208.96428454 -429.390625 197.77734375 C-429.3527989 192.22123043 -428.94692127 187.76030182 -426.578125 182.65234375 C-423.3946204 175.54214707 -426.73184924 168.39903384 -428.828125 161.33984375 C-431.72506466 148.3922971 -427.63507935 136.30134082 -420.828125 125.33984375 C-412.68608423 114.08306256 -397.7597716 109.61064166 -385.02734375 105.6953125 C-383.72471689 105.28523548 -382.4224241 104.87409605 -381.12043762 104.46199036 C-377.64559655 103.36520177 -374.16648286 102.28262489 -370.68637085 101.20269775 C-366.99255762 100.05349295 -363.30313783 98.89034852 -359.61328125 97.72851562 C-353.57414068 95.82857076 -347.5328396 93.9356723 -341.48974609 92.04833984 C-330.2364273 88.53318573 -318.99582751 84.97798984 -307.7550354 81.42300415 C-304.30024789 80.3310325 -300.84491484 79.24080436 -297.3894043 78.15112305 C-279.19233133 72.41191633 -261.00880531 66.63070373 -242.828125 60.83984375 C-221.18289451 53.94546484 -199.52932154 47.07852642 -177.86395264 40.24761963 C-159.79478425 34.5498422 -141.73763753 28.81512535 -123.68560791 23.06335449 C-101.62035138 16.03298028 -79.54831643 9.0256853 -57.453125 2.08984375 C-56.36219543 1.74701355 -55.27126587 1.40418335 -54.14727783 1.05096436 C-51.11684488 0.09900287 -48.08588463 -0.85125623 -45.0546875 -1.80078125 C-44.16950439 -2.07886627 -43.28432129 -2.35695129 -42.37231445 -2.64346313 C-41.56189697 -2.89679413 -40.75147949 -3.15012512 -39.91650391 -3.41113281 C-39.21844635 -3.62981018 -38.52038879 -3.84848755 -37.80117798 -4.0737915 C-25.02553653 -7.87053991 -11.46049162 -6.72749853 0 0 Z " fill="#66686A" transform="translate(444.828125,21.66015625)"/>
<path d="M0 0 C11.3605389 7.55817274 17.01689481 17.75099818 20.99291992 30.49267578 C21.61315782 32.47694577 22.26390162 34.44917891 22.91992188 36.421875 C28.14970782 52.42851246 28.14970782 52.42851246 26.359375 59.58984375 C19.74259311 67.90808384 5.75642151 70.29400249 -4.015625 73.40234375 C-5.88803829 74.00432253 -7.7602653 74.60688102 -9.63232422 75.20996094 C-14.87785997 76.89650151 -20.12719493 78.5709079 -25.37774658 80.24176025 C-28.94739854 81.37780257 -32.51646414 82.51567305 -36.08544922 83.65380859 C-65.24615044 92.94946007 -94.43124294 102.16800281 -123.62008667 111.37484741 C-140.9847994 116.85244757 -158.3395839 122.36058668 -175.68857002 127.88773632 C-180.56979041 129.44256919 -185.45190386 130.99457321 -190.33447266 132.54516602 C-193.08238716 133.41803588 -195.83026372 134.29102512 -198.578125 135.1640625 C-199.25411114 135.37879526 -199.93009727 135.59352802 -200.62656784 135.81476784 C-208.71794955 138.38577618 -216.80412831 140.97208037 -224.88242626 143.58392239 C-230.57151061 145.4231771 -236.26461667 147.24962428 -241.95913696 149.07199097 C-244.30782961 149.82672707 -246.65485948 150.5866597 -249.00009155 151.3520813 C-252.21340581 152.4003712 -255.43196818 153.43067729 -258.65234375 154.45703125 C-260.05534729 154.92246086 -260.05534729 154.92246086 -261.48669434 155.39729309 C-268.09177734 157.47313373 -272.81123538 157.84480485 -279.2109375 154.65234375 C-280.46515953 153.89266784 -281.71208007 153.12086096 -282.953125 152.33984375 C-284.45636036 151.42597886 -285.96032447 150.51331209 -287.46484375 149.6015625 C-288.3057959 149.08770996 -289.14674805 148.57385742 -290.01318359 148.04443359 C-294.94544878 145.05769678 -299.9263709 142.15342079 -304.90332031 139.24200439 C-306.77865566 138.14471933 -308.65308359 137.04589774 -310.52734375 135.94677734 C-318.81762893 131.08748508 -327.12799894 126.26425261 -335.453125 121.46484375 C-336.51249268 120.85261963 -337.57186035 120.24039551 -338.66333008 119.60961914 C-343.64960897 116.73129111 -348.64582546 113.87477972 -353.671875 111.06640625 C-354.56825684 110.56093262 -355.46463867 110.05545898 -356.38818359 109.53466797 C-358.05249612 108.59716545 -359.72185283 107.66854096 -361.39697266 106.75048828 C-363.25746467 105.69760668 -365.05204459 104.52960364 -366.828125 103.33984375 C-366.828125 102.34984375 -366.828125 101.35984375 -366.828125 100.33984375 C-338.83097116 91.30600456 -310.82351924 82.30847112 -282.765625 73.46484375 C-281.60106781 73.0977832 -280.43651062 72.73072266 -279.23666382 72.35253906 C-278.06181427 71.98225586 -276.88696472 71.61197266 -275.67651367 71.23046875 C-273.28043095 70.47527707 -270.88435351 69.72006864 -268.48828125 68.96484375 C-267.29452377 68.58859863 -266.1007663 68.21235352 -264.87083435 67.82470703 C-251.46921685 63.59902689 -238.07577639 59.34765029 -224.68310165 55.09373474 C-222.70253935 54.46465773 -220.72195468 53.83565121 -218.74136353 53.20666504 C-209.43674265 50.25171272 -200.13239933 47.29588702 -190.828125 44.33984375 C-151.85978298 31.95928604 -112.88511724 19.59951997 -73.88946533 7.30517578 C-70.93774411 6.37440993 -67.98617779 5.4431547 -65.03466797 4.51171875 C-60.78402343 3.17037499 -56.53301115 1.8302049 -52.28161621 0.49124146 C-50.79411105 0.02260481 -49.30672112 -0.44639776 -47.81945801 -0.915802 C-45.83702475 -1.54135587 -43.85413298 -2.16543274 -41.87109375 -2.7890625 C-40.78852295 -3.1301001 -39.70595215 -3.4711377 -38.59057617 -3.82250977 C-25.52334602 -7.78483117 -11.79759959 -6.9253865 0 0 Z " fill="#CFDAFC" transform="translate(444.828125,21.66015625)"/>
<path d="M0 0 C0.91727371 -0.00058411 1.83454742 -0.00116821 2.77961731 -0.00177002 C5.81545689 0.0010196 8.85031801 0.03215326 11.88598633 0.06347656 C13.98919641 0.07093582 16.09241343 0.07663024 18.19563293 0.08062744 C23.73439687 0.09590851 29.272742 0.13521188 34.81134033 0.17944336 C40.46181573 0.22034262 46.11235873 0.23862704 51.76293945 0.25878906 C62.85231629 0.30170353 73.94138212 0.36998495 85.03051758 0.45410156 C83.77397005 2.97719699 82.51632163 5.49973386 81.25805664 8.02197266 C80.9069986 8.72716537 80.55594055 9.43235809 80.19424438 10.15892029 C76.84608241 16.86658985 73.33906333 23.48045788 69.78051758 30.07910156 C69.13351193 31.28240921 68.48662285 32.48577955 67.83984375 33.68920898 C53.18158298 60.93973711 53.18158298 60.93973711 46.03051758 73.45410156 C74.74051758 73.45410156 103.45051758 73.45410156 133.03051758 73.45410156 C138.97051758 61.57410156 144.91051758 49.69410156 151.03051758 37.45410156 C154.35000804 31.1135018 157.6796909 24.77819698 161.03051758 18.45410156 C164.00051758 12.51410156 166.97051758 6.57410156 170.03051758 0.45410156 C201.38051758 0.45410156 232.73051758 0.45410156 265.03051758 0.45410156 C262.06051758 6.72410156 259.09051758 12.99410156 256.03051758 19.45410156 C255.13204102 21.35546875 254.23356445 23.25683594 253.30786133 25.21582031 C245.44951317 41.7590207 237.22783989 58.05945693 229.03051758 74.45410156 C255.43051758 74.45410156 281.83051758 74.45410156 309.03051758 74.45410156 C309.03051758 83.03410156 309.03051758 91.61410156 309.03051758 100.45410156 C260.10296451 100.54531922 211.17542223 100.61612336 162.24780082 100.65836288 C156.4736314 100.66336581 150.69946214 100.66854309 144.92529297 100.67382812 C143.77574245 100.67487737 142.62619194 100.67592661 141.44180656 100.67700765 C122.81967987 100.69442077 104.19760249 100.72596347 85.57550507 100.76271275 C66.47261472 100.80009689 47.36975022 100.82233207 28.26682478 100.83045554 C16.47588514 100.83594855 4.68508486 100.85330814 -7.10581189 100.88576743 C-15.1873376 100.90688411 -23.26879109 100.91330806 -31.3503424 100.90810707 C-36.01549409 100.90554087 -40.68040196 100.90952065 -45.34551048 100.93092346 C-49.61616581 100.95037375 -53.88641311 100.95138154 -58.15708714 100.93769714 C-59.70229715 100.93600559 -61.24753251 100.94109282 -62.79269255 100.95363429 C-77.14348887 101.06334428 -77.14348887 101.06334428 -82.96948242 96.45410156 C-86.93639517 91.90060272 -87.39833405 86.58598397 -87.30541992 80.75097656 C-86.94522724 78.28826381 -86.12202929 76.63962933 -84.96948242 74.45410156 C-83.88231934 74.54220093 -83.88231934 74.54220093 -82.77319336 74.63208008 C-69.30727641 75.89077508 -69.30727641 75.89077508 -56.78588867 72.07666016 C-53.04090566 68.30301656 -50.6884471 63.67043997 -48.29907227 58.96484375 C-46.04128376 54.7013298 -43.2562377 50.80387299 -40.53198242 46.82910156 C-39.36797574 45.07949221 -38.20665289 43.32809521 -37.04760742 41.57519531 C-32.47298779 34.69111557 -27.84413803 27.84393897 -23.20968628 21.00006104 C-22.26292255 19.60186284 -21.31656794 18.20338752 -20.37063599 16.80462646 C-19.03617801 14.8315803 -17.7003252 12.85948643 -16.36401367 10.88769531 C-15.96458557 10.29690689 -15.56515747 9.70611847 -15.15362549 9.09742737 C-14.09971497 7.54455565 -13.03505345 5.9989952 -11.96948242 4.45410156 C-11.61727631 3.74228226 -11.26507019 3.03046295 -10.90219116 2.29707336 C-7.77937917 -0.68074442 -4.08309824 -0.06763484 0 0 Z " fill="#488BFF" transform="translate(187.969482421875,217.5458984375)"/>
<path d="M0 0 C0.67128433 0.49383682 1.34256866 0.98767365 2.03419495 1.49647522 C2.80650955 2.05299271 3.57882416 2.60951019 4.37454224 3.18289185 C5.20139023 3.79434555 6.02823822 4.40579926 6.88014221 5.03578186 C8.68148728 6.33250218 10.48477889 7.6265219 12.28981018 8.91810608 C13.22234619 9.58718994 14.1548822 10.2562738 15.11567688 10.94563293 C19.62806856 14.13410693 24.23585574 17.17157082 28.85670471 20.19984436 C30.2288765 21.10118607 30.2288765 21.10118607 31.62876892 22.02073669 C34.42059425 23.85242808 37.21456842 25.6807999 40.00904846 27.50843811 C46.43112085 31.71284057 52.84826214 35.92440688 59.24909973 40.16108704 C61.08234439 41.37411053 62.91716117 42.58476071 64.75337219 43.79328918 C67.44882421 45.57167167 70.1343836 47.36407061 72.81764221 49.16078186 C74.05007408 49.96957542 74.05007408 49.96957542 75.30740356 50.79470825 C76.05126816 51.29699448 76.79513275 51.7992807 77.5615387 52.31678772 C78.21790817 52.75381516 78.87427765 53.19084259 79.55053711 53.64111328 C80.01122086 54.07170547 80.4719046 54.50229767 80.94654846 54.94593811 C80.94654846 55.93593811 80.94654846 56.92593811 80.94654846 57.94593811 C72.22657604 60.72858908 63.50643674 63.51071633 54.78609467 66.29220867 C50.73517052 67.58433295 46.68430014 68.8766252 42.63356018 70.16932678 C38.71088751 71.42115132 34.78806376 72.67250144 30.86514282 73.92354774 C29.3822918 74.39652561 27.89949168 74.86966312 26.41674805 75.34297752 C25.71143448 75.56811342 25.00612091 75.79324932 24.2794342 76.02520752 C23.58407814 76.2472627 22.88872208 76.46931787 22.17229462 76.698102 C20.80086758 77.13468818 19.42880065 77.56926989 18.05606842 78.00173473 C14.55623541 79.10499942 11.07082331 80.23807298 7.59767151 81.42289734 C6.88430382 81.66039861 6.17093613 81.89789988 5.43595123 82.14259815 C4.08751617 82.59175393 2.74271229 83.05204001 1.40276337 83.52591228 C-4.48104834 85.45833738 -8.93222257 85.00410314 -14.43626404 82.25843811 C-15.69048607 81.4987622 -16.93740661 80.72695532 -18.17845154 79.94593811 C-19.6816869 79.03207322 -21.18565101 78.11940645 -22.69017029 77.20765686 C-23.53112244 76.69380432 -24.37207458 76.17995178 -25.23851013 75.65052795 C-30.17077531 72.66379114 -35.15169743 69.75951515 -40.12864685 66.84809875 C-42.00398219 65.75081369 -43.87841013 64.6519921 -45.75267029 63.5528717 C-54.04295547 58.69357944 -62.35332548 53.87034697 -70.67845154 49.07093811 C-71.73781921 48.45871399 -72.79718689 47.84648987 -73.88865662 47.2157135 C-78.8749355 44.33738547 -83.871152 41.48087408 -88.89720154 38.67250061 C-89.79358337 38.16702698 -90.68996521 37.66155334 -91.61351013 37.14076233 C-93.27782265 36.20325981 -94.94717937 35.27463532 -96.62229919 34.35658264 C-98.48279121 33.30370104 -100.27737113 32.135698 -102.05345154 30.94593811 C-102.05345154 29.95593811 -102.05345154 28.96593811 -102.05345154 27.94593811 C-95.08029597 25.70205057 -88.10695716 23.4587334 -81.13340282 21.21608543 C-77.89304419 20.1739896 -74.652742 19.13171904 -71.4125824 18.08900452 C-64.06268619 15.72394595 -56.71172005 13.36227285 -49.35899353 11.00602722 C-47.24655144 10.3285659 -45.13445568 9.65002307 -43.02281189 8.97007751 C-40.38692796 8.12150786 -37.74972095 7.27719989 -35.11204529 6.43421936 C-34.36939926 6.19404083 -33.62675323 5.9538623 -32.86160278 5.70640564 C-28.08322979 4.18644925 -23.3652198 3.12546687 -18.41282654 2.37953186 C-15.17763616 1.78498528 -12.18879586 0.70894106 -9.12376404 -0.46812439 C-5.79967727 -1.40890366 -3.12336105 -1.60325958 0 0 Z " fill="#CFDAFC" transform="translate(180.05345153808594,94.05406188964844)"/>
<path d="M0 0 C0.495 0.99 0.495 0.99 1 2 C1.72316406 2.28488281 2.44632812 2.56976563 3.19140625 2.86328125 C6.53740913 4.21750494 9.03126168 6.042847 11.9375 8.1875 C18.14350599 12.71311834 24.45462065 17.06571585 30.8125 21.375 C38.23928395 26.41625311 45.61731185 31.51560223 52.93530273 36.71337891 C57.71687297 40.1062328 62.53508825 43.4409871 67.375 46.75 C73.66881557 51.05455057 79.86833426 55.46620478 86 60 C83.02500014 61.5794878 80.07103491 62.70841493 76.86547852 63.73657227 C75.83731522 64.06800735 74.80915192 64.39944244 73.74983215 64.74092102 C72.63742661 65.09583115 71.52502106 65.45074127 70.37890625 65.81640625 C69.21852341 66.18940353 68.05814056 66.56240082 66.8625946 66.94670105 C63.09711463 68.15579667 59.33001811 69.35977614 55.5625 70.5625 C54.27916173 70.97257465 52.99583653 71.3826902 51.71252441 71.79284668 C46.62913126 73.41724334 41.54542978 75.04066006 36.46054077 76.66036987 C30.36732089 78.60166451 24.27776976 80.55259459 18.19883728 82.53819275 C16.09889631 83.22309333 13.99713863 83.90197643 11.89428711 84.57788086 C9.53345338 85.3372004 7.1759239 86.10690327 4.82250977 86.88891602 C3.81373779 87.20916748 2.80496582 87.52941895 1.765625 87.859375 C0.92805664 88.13233398 0.09048828 88.40529297 -0.77246094 88.68652344 C-4.74799309 89.24599114 -7.82376719 86.53687444 -11.04882812 84.41235352 C-11.84002045 83.89257431 -12.63121277 83.3727951 -13.44638062 82.83726501 C-14.29938751 82.27350662 -15.15239441 81.70974823 -16.03125 81.12890625 C-16.92719879 80.53900406 -17.82314758 79.94910187 -18.74624634 79.34132385 C-21.6658622 77.41760997 -24.5830808 75.49029996 -27.5 73.5625 C-28.48997986 72.90916687 -29.47995972 72.25583374 -30.49993896 71.58270264 C-44.88072815 62.09121272 -59.21226692 52.53201825 -73.4453125 42.8203125 C-74.84583862 41.86535889 -74.84583862 41.86535889 -76.2746582 40.89111328 C-78.13559473 39.59981037 -79.98000065 38.28443856 -81.80932617 36.94873047 C-82.69338135 36.30564941 -83.57743652 35.66256836 -84.48828125 35 C-85.26212158 34.42507812 -86.03596191 33.85015625 -86.83325195 33.2578125 C-89.76710473 31.5546903 -91.74876811 31.56588661 -94.98828125 32.328125 C-99.48248823 33.8259944 -99.48248823 33.8259944 -103.921875 35.4765625 C-106.33669973 36.08480783 -107.64166851 35.67178581 -110 35 C-101.23044024 32.16272101 -92.45951054 29.32969212 -83.6875 26.5 C-82.7018487 26.18204279 -82.7018487 26.18204279 -81.69628525 25.8576622 C-54.51047369 17.08967894 -27.2711765 8.49902189 0 0 Z " fill="#666666" transform="translate(267,62)"/>
<path d="M0 0 C0.91727371 -0.00058411 1.83454742 -0.00116821 2.77961731 -0.00177002 C5.81545689 0.0010196 8.85031801 0.03215326 11.88598633 0.06347656 C13.98919641 0.07093582 16.09241343 0.07663024 18.19563293 0.08062744 C23.73439687 0.09590851 29.272742 0.13521188 34.81134033 0.17944336 C40.46181573 0.22034262 46.11235873 0.23862704 51.76293945 0.25878906 C62.85231629 0.30170353 73.94138212 0.36998495 85.03051758 0.45410156 C83.77397005 2.97719699 82.51632163 5.49973386 81.25805664 8.02197266 C80.9069986 8.72716537 80.55594055 9.43235809 80.19424438 10.15892029 C76.84608561 16.86658343 73.33923109 23.48055423 69.78051758 30.07910156 C69.13279904 31.28315211 68.48517717 32.48725466 67.83764648 33.69140625 C65.90585597 37.2810941 63.96842862 40.86771425 62.03051758 44.45410156 C61.15314941 46.0807373 61.15314941 46.0807373 60.25805664 47.74023438 C58.64409237 50.73012886 57.02588487 53.71767319 55.40551758 56.70410156 C54.69733887 58.01435303 54.69733887 58.01435303 53.97485352 59.35107422 C53.52658203 60.17397949 53.07831055 60.99688477 52.61645508 61.84472656 C52.23537598 62.54629883 51.85429687 63.24787109 51.46166992 63.97070312 C50.98938965 64.79022461 50.51710938 65.60974609 50.03051758 66.45410156 C49.74080298 67.10109638 49.45108839 67.7480912 49.15259457 68.41469193 C46.32888453 74.00749893 46.32888453 74.00749893 42.91340256 75.18233109 C40.21768311 75.44144846 37.62320258 75.44388105 34.91601562 75.36230469 C33.39336342 75.36405701 33.39336342 75.36405701 31.83995056 75.36584473 C28.48931377 75.3602771 25.14224999 75.29808363 21.79223633 75.23535156 C19.46769658 75.22042843 17.14313165 75.20904176 14.81855774 75.2010498 C8.70391213 75.17052226 2.59078983 75.09195072 -3.52325439 75.00341797 C-9.7635843 74.92154169 -16.00416069 74.88503432 -22.24487305 74.84472656 C-34.48707835 74.7589597 -46.72815366 74.62244268 -58.96948242 74.45410156 C-51.69354397 62.95853182 -51.69354397 62.95853182 -47.86791992 57.34472656 C-46.77640625 55.73984375 -46.77640625 55.73984375 -45.6628418 54.10253906 C-44.89008225 52.9697082 -44.11729509 51.83689618 -43.34448242 50.70410156 C-42.10474036 48.88311323 -40.86555721 47.06174539 -39.62640381 45.24035645 C-38.76139957 43.96898729 -37.89620361 42.69774857 -37.03082275 41.42663574 C-33.73356192 36.58220683 -30.44711718 31.730537 -27.16479492 26.87597656 C-26.68730804 26.16999329 -26.20982117 25.46401001 -25.71786499 24.7366333 C-23.84012809 21.96026431 -21.96240778 19.18388603 -20.08636475 16.40637207 C-18.7878892 14.48417029 -17.4881798 12.56280816 -16.18823242 10.64160156 C-15.80466583 10.07302429 -15.42109924 9.50444702 -15.02590942 8.91864014 C-14.01465879 7.42531424 -12.99251619 5.93937998 -11.96948242 4.45410156 C-11.61891281 3.74457336 -11.2683432 3.03504517 -10.90715027 2.30401611 C-7.78136048 -0.6802126 -4.08912429 -0.06773466 0 0 Z " fill="#D0DBFE" transform="translate(187.969482421875,217.5458984375)"/>
<path d="M0 0 C31.35 0 62.7 0 95 0 C92.03 6.27 89.06 12.54 86 19 C85.10152344 20.90136719 84.20304687 22.80273438 83.27734375 24.76171875 C75.41899559 41.30491913 67.19732232 57.60535537 59 74 C27.32 74 -4.36 74 -37 74 C-26.66174437 52.17479368 -26.66174437 52.17479368 -22.01171875 43.14453125 C-21.50123489 42.14717453 -20.99075104 41.14981781 -20.46479797 40.12223816 C-18.87505944 37.01760226 -17.28144131 33.91497987 -15.6875 30.8125 C-14.07661088 27.67028677 -12.46653261 24.52765924 -10.85664368 21.38493347 C-9.86570557 19.4511986 -8.87404529 17.51783356 -7.8815155 15.58491516 C-7.4303688 14.70587021 -6.97922211 13.82682526 -6.5144043 12.92114258 C-6.12407516 12.16126541 -5.73374603 11.40138824 -5.33158875 10.6184845 C-3.5362873 7.0881385 -1.77123969 3.54247938 0 0 Z " fill="#D0DBFE" transform="translate(358,218)"/>
<path d="M0 0 C0.92248535 0.54277588 1.8449707 1.08555176 2.79541016 1.64477539 C4.28693604 2.52830688 4.28693604 2.52830688 5.80859375 3.4296875 C14.37082497 8.46610059 22.96074385 13.44525439 31.5949707 18.35678101 C41.60283877 24.05008863 51.56428419 29.81429675 61.46386719 35.69433594 C70.34914536 40.97090615 79.29232665 46.14541523 88.24609375 51.3046875 C85.36766915 53.22363724 83.19642727 54.07972424 79.92700195 55.10473633 C78.29303215 55.62086235 78.29303215 55.62086235 76.62605286 56.14741516 C75.44492416 56.51513535 74.26379547 56.88285553 73.046875 57.26171875 C71.82389206 57.6465593 70.60090912 58.03139984 69.34086609 58.42790222 C66.07845959 59.45441419 62.81427121 60.47514241 59.54968262 61.49468994 C56.28788758 62.51446333 53.02779119 63.53963571 49.76757812 64.56445312 C44.7958273 66.12719897 39.82167596 67.68209061 34.84619141 69.23291016 C30.88307269 70.47052505 26.92860297 71.72783896 22.98583984 73.02880859 C21.86353218 73.39494514 21.86353218 73.39494514 20.71855164 73.76847839 C18.84530367 74.38204247 16.97555097 75.00625177 15.10620117 75.6315918 C12.26715759 76.29973035 10.88879453 76.4828916 8.24609375 75.3046875 C6.640625 73.046875 6.640625 73.046875 5.05859375 70.1796875 C-0.43953471 61.1604172 -7.73652901 56.38950897 -17.75390625 53.3046875 C-28.75398464 50.64018406 -38.90710164 51.76760332 -48.75390625 57.3046875 C-54.75039341 61.1413457 -58.95569715 65.30106667 -62.75390625 71.3046875 C-67.74729485 66.3112989 -69.28691405 55.62007624 -69.77734375 48.625 C-69.65096247 36.11325321 -65.62014619 24.25662254 -57.19140625 14.8671875 C-47.70564329 6.48276781 -35.50762303 3.02534857 -23.69140625 -0.7578125 C-23.0432193 -0.96993378 -22.39503235 -1.18205505 -21.72720337 -1.40060425 C-19.85519735 -2.00794043 -17.9745425 -2.58841429 -16.09375 -3.16796875 C-14.99409912 -3.51093994 -13.89444824 -3.85391113 -12.76147461 -4.20727539 C-7.67647452 -5.03241665 -4.26960556 -2.52749656 0 0 Z " fill="#666666" transform="translate(84.75390625,127.6953125)"/>
<path d="M0 0 C1.89710764 0.01866191 3.79426362 0.0328915 5.69143677 0.0428772 C10.67401259 0.08097799 15.65365183 0.17912785 20.6350708 0.28991699 C25.72245555 0.39239727 30.81031709 0.43792447 35.8984375 0.48828125 C45.87368296 0.59538365 55.84675314 0.76594834 65.8203125 0.9765625 C64.40299351 5.34560711 62.75722927 9.34848226 60.6953125 13.45703125 C60.39231735 14.06297119 60.0893222 14.66891113 59.77714539 15.29321289 C58.7957883 17.25233218 57.80835248 19.20830619 56.8203125 21.1640625 C56.1363583 22.52443697 55.45252122 23.88487034 54.76879883 25.24536133 C49.57702325 35.55705799 44.24216623 45.78347749 38.8203125 55.9765625 C35.5203125 62.2465625 32.2203125 68.5165625 28.8203125 74.9765625 C-0.2196875 74.9765625 -29.2596875 74.9765625 -59.1796875 74.9765625 C-50.0535386 56.72426471 -50.0535386 56.72426471 -45.5546875 48.6015625 C-44.52786912 46.73480202 -43.50186449 44.86759377 -42.4765625 43 C-41.94482422 42.0315918 -41.41308594 41.06318359 -40.86523438 40.06542969 C-39.06430624 36.76511933 -37.28356113 33.45454834 -35.5078125 30.140625 C-34.89115723 28.98997559 -34.27450195 27.83932617 -33.63916016 26.65380859 C-32.44946919 24.43117328 -31.26153535 22.20759619 -30.07568359 19.98291016 C-29.52477051 18.95472168 -28.97385742 17.9265332 -28.40625 16.8671875 C-27.92752441 15.97032227 -27.44879883 15.07345703 -26.95556641 14.14941406 C-26.36952637 13.10237305 -25.78348633 12.05533203 -25.1796875 10.9765625 C-24.89501617 10.13223663 -24.61034485 9.28791077 -24.31704712 8.41799927 C-19.88511504 -2.26477773 -9.88294017 -0.28460344 0 0 Z " fill="#666666" transform="translate(292.1796875,217.0234375)"/>
<path d="M0 0 C7.49844531 5.66657756 15.1579168 15.41809396 16.6875 24.9375 C17.69719555 38.85805663 14.97965623 50.19343794 5.94140625 61.03125 C-1.74864591 69.3247469 -11.6265063 73.85354607 -22.9375 74.3125 C-34.89210849 74.05878172 -46.56361302 69.57175621 -55.15234375 61.12890625 C-56.77252486 59.14593649 -58.04880459 57.16437788 -59.3125 54.9375 C-59.7971875 54.10992187 -60.281875 53.28234375 -60.78125 52.4296875 C-65.71678699 42.58603316 -66.03709129 30.88027522 -63.40234375 20.2734375 C-62.49029887 17.74324848 -61.52094669 15.33820883 -60.3125 12.9375 C-59.6525 12.9375 -58.9925 12.9375 -58.3125 12.9375 C-58.0340625 12.34710938 -57.755625 11.75671875 -57.46875 11.1484375 C-53.59658422 3.74422861 -47.59179293 -0.29734849 -40.3125 -4.0625 C-39.67570312 -4.40539062 -39.03890625 -4.74828125 -38.3828125 -5.1015625 C-26.24341071 -10.67630925 -10.78812493 -6.85169462 0 0 Z " fill="#FEC760" transform="translate(80.3125,186.0625)"/>
<path d="M0 0 C11.3605389 7.55817274 17.01689481 17.75099818 20.99291992 30.49267578 C21.61315782 32.47694577 22.26390162 34.44917891 22.91992188 36.421875 C28.14970782 52.42851246 28.14970782 52.42851246 26.359375 59.58984375 C21.40001676 65.82446554 11.8895986 69.01293689 4.171875 70.33984375 C0.95272903 69.81860951 -0.96420969 68.70103057 -3.48828125 66.671875 C-4.54015625 65.8375293 -4.54015625 65.8375293 -5.61328125 64.98632812 C-6.36480469 64.38111328 -7.11632812 63.77589844 -7.890625 63.15234375 C-14.28273608 58.08758473 -20.7377354 53.1438174 -27.328125 48.33984375 C-34.32976729 43.22427645 -41.20341283 37.97090112 -48.0234375 32.61621094 C-54.52023857 27.53412847 -61.14428939 22.63562345 -67.8125 17.78125 C-68.57046875 17.22824219 -69.3284375 16.67523438 -70.109375 16.10546875 C-70.78033203 15.61852539 -71.45128906 15.13158203 -72.14257812 14.62988281 C-73.828125 13.33984375 -73.828125 13.33984375 -75.828125 11.33984375 C-77.14559824 10.64235792 -78.47726693 9.97024418 -79.828125 9.33984375 C-73.63564675 7.3625949 -67.44255152 5.38728796 -61.24902344 3.41333008 C-59.14210989 2.741577 -57.03533801 2.06937944 -54.92871094 1.39672852 C-51.90076228 0.42998242 -48.87230785 -0.53516431 -45.84375 -1.5 C-44.90194885 -1.80107162 -43.96014771 -2.10214325 -42.98980713 -2.41233826 C-42.10919617 -2.69255325 -41.22858521 -2.97276825 -40.32128906 -3.26147461 C-39.54851624 -3.50796249 -38.77574341 -3.75445038 -37.97955322 -4.00840759 C-25.16782004 -7.88956422 -11.51023941 -6.75670131 0 0 Z " fill="#666666" transform="translate(444.828125,21.66015625)"/>
<path d="M0 0 C1.40971872 -0.01041829 1.40971872 -0.01041829 2.8479166 -0.02104706 C6.00488913 -0.03937969 9.16111551 -0.0290352 12.31811523 -0.01878357 C14.57820195 -0.02583882 16.83828394 -0.03458216 19.09835815 -0.04489136 C25.2428991 -0.06743803 31.38718311 -0.06443339 37.53174973 -0.05556989 C42.65633814 -0.05046879 47.7808779 -0.05774534 52.90546131 -0.06504196 C65.68276465 -0.08303094 78.45988776 -0.07661312 91.23717558 -0.05887216 C102.33734677 -0.04417274 113.43724734 -0.05880614 124.53738368 -0.08764232 C135.93261158 -0.11702489 147.32767972 -0.12750361 158.72295666 -0.11846012 C165.12154586 -0.11352167 171.51992461 -0.11579642 177.91848755 -0.13624763 C183.93337561 -0.15455144 189.94775913 -0.14871062 195.96261978 -0.12404823 C198.17336905 -0.11902377 200.38415641 -0.12257216 202.59487534 -0.13519669 C205.60664293 -0.1510385 208.61673095 -0.13625979 211.62841797 -0.11352539 C212.50895623 -0.12536112 213.3894945 -0.13719685 214.29671574 -0.14939123 C218.48643078 -0.08487383 220.17869089 -0.05814834 223.38441467 2.83126926 C224.81420898 5.5146637 224.81420898 5.5146637 224.87670898 9.0771637 C223.57194972 13.29844368 222.57225802 14.24394953 218.81420898 16.5146637 C215.74983365 17.09113627 212.73975788 17.05895606 209.62878418 17.02932739 C208.7010735 17.03627292 207.77336282 17.04321845 206.81753969 17.05037445 C203.70746129 17.06867775 200.59814281 17.05837073 197.48803711 17.04811096 C195.25898161 17.05516769 193.0299309 17.06391166 190.80088806 17.07421875 C184.74517812 17.09674874 178.68972908 17.09376467 172.63399315 17.08489728 C167.5815231 17.07979307 162.52910233 17.08707527 157.47663736 17.09436935 C144.87842367 17.11235238 132.28036622 17.1059459 119.68216878 17.08819955 C108.74116515 17.0735004 97.80043608 17.08813416 86.8594678 17.11696971 C75.62354692 17.14636201 64.38774962 17.15682834 53.15178061 17.14778751 C46.84427616 17.14285159 40.53698521 17.14511025 34.22950745 17.16557503 C28.29996128 17.1838922 22.37092661 17.17802151 16.44140816 17.15337563 C14.26332926 17.14835545 12.08521165 17.15188857 9.90716362 17.16452408 C6.93739422 17.18039179 3.9693222 17.16556258 0.99963379 17.14285278 C0.13436333 17.15468851 -0.73090713 17.16652424 -1.6223979 17.17871863 C-5.9419785 17.11144453 -7.68159976 16.89901318 -11.22472382 14.19805813 C-13.18579102 11.5146637 -13.18579102 11.5146637 -13.74829102 7.9521637 C-13.18579102 4.5146637 -13.18579102 4.5146637 -11.7247467 2.33198643 C-7.93289891 -0.382126 -4.55800659 -0.0426574 0 0 Z " fill="#656769" transform="translate(81.185791015625,376.48533630371094)"/>
<path d="M0 0 C6.41486669 3.33540044 11.69399859 7.10443776 16.171875 12.8125 C19.12850447 14.73304564 21.62495528 13.63265982 25 13 C27.42305205 12.2809288 29.82946649 11.50404723 32.21875 10.6796875 C33.5766496 10.22214156 34.93472808 9.76512622 36.29296875 9.30859375 C38.40148842 8.59265034 40.50814793 7.87217224 42.61181641 7.14208984 C44.66399866 6.43284112 46.72184996 5.7426485 48.78125 5.0546875 C49.99876953 4.63687012 51.21628906 4.21905273 52.47070312 3.78857422 C59.12477306 2.30181122 63.63816474 3.9847841 69.37109375 7.37890625 C69.93828629 7.71043198 70.50547882 8.0419577 71.08985901 8.38352966 C72.87893867 9.43253803 74.65814115 10.49710377 76.4375 11.5625 C77.65758218 12.28165347 78.87828043 12.99976281 80.09960938 13.71679688 C83.07361992 15.46585852 86.03899543 17.22898825 89 19 C86.1215754 20.91894974 83.95033352 21.77503674 80.6809082 22.80004883 C79.591595 23.14413284 78.5022818 23.48821686 77.37995911 23.84272766 C76.19883041 24.21044785 75.01770172 24.57816803 73.80078125 24.95703125 C72.57779831 25.3418718 71.35481537 25.72671234 70.09477234 26.12321472 C66.83236584 27.14972669 63.56817746 28.17045491 60.30358887 29.19000244 C57.04179383 30.20977583 53.78169744 31.23494821 50.52148438 32.25976562 C45.54973355 33.82251147 40.57558221 35.37740311 35.60009766 36.92822266 C31.63697894 38.16583755 27.68250922 39.42315146 23.73974609 40.72412109 C22.61743843 41.09025764 22.61743843 41.09025764 21.47245789 41.46379089 C19.59920992 42.07735497 17.72945722 42.70156427 15.86010742 43.3269043 C13.02106384 43.99504285 11.64270078 44.1782041 9 43 C7.39453125 40.7421875 7.39453125 40.7421875 5.8125 37.875 C0.43329702 29.05081809 -7.00642835 23.67301177 -17 21 C-21.96714161 20.07502255 -26.97470785 19.5092296 -32 19 C-33.16846586 12.80205067 -33.49049422 8.24842436 -30.24609375 2.69140625 C-22.49023973 -7.83613228 -10.36768162 -4.1519573 0 0 Z " fill="#4D4D4D" transform="translate(84,160)"/>
<path d="M0 0 C0.92055176 0.65234619 1.84110352 1.30469238 2.78955078 1.97680664 C3.80017578 2.68643555 4.81080078 3.39606445 5.85205078 4.12719727 C7.40279297 5.24578125 7.40279297 5.24578125 8.98486328 6.38696289 C10.04189453 7.12881836 11.09892578 7.87067383 12.18798828 8.63500977 C19.95582598 14.14138829 19.95582598 14.14138829 21.10986328 16.44946289 C17.32865378 17.64490354 13.5473849 18.84015624 9.76611328 20.03540039 C8.58603195 20.40849335 7.40595062 20.7815863 6.19010925 21.16598511 C-0.29290259 23.21520064 -6.77667711 25.2619471 -13.26196289 27.30395508 C-15.87114236 28.12574093 -18.48026538 28.9477058 -21.08935547 29.76977539 C-21.73485037 29.97311996 -22.38034527 30.17646454 -23.04540062 30.38597107 C-30.9282537 32.87020435 -38.80081782 35.38257875 -46.65966797 37.94165039 C-48.84451797 38.64717577 -51.02978794 39.35137654 -53.21533203 40.05474854 C-54.53331544 40.48232405 -55.84959904 40.91517739 -57.1640625 41.35345459 C-58.93958541 41.94527641 -60.72133606 42.51831981 -62.50341797 43.09008789 C-63.46030518 43.40494141 -64.41719238 43.71979492 -65.40307617 44.04418945 C-68.44681801 44.54017566 -69.33450328 44.11166857 -71.89013672 42.44946289 C-73.16002441 41.65548096 -73.16002441 41.65548096 -74.45556641 40.84545898 C-75.86950684 39.91854248 -75.86950684 39.91854248 -77.31201172 38.97290039 C-78.84921875 37.96743164 -78.84921875 37.96743164 -80.41748047 36.94165039 C-81.48095703 36.24297852 -82.54443359 35.54430664 -83.64013672 34.82446289 C-85.25855469 33.76485352 -85.25855469 33.76485352 -86.90966797 32.68383789 C-89.57108772 30.94096124 -92.23118604 29.19610312 -94.89013672 27.44946289 C-94.39513672 25.96446289 -94.39513672 25.96446289 -93.89013672 24.44946289 C-91.51123047 23.40966797 -91.51123047 23.40966797 -88.32763672 22.46899414 C-87.15096436 22.11377686 -85.97429199 21.75855957 -84.76196289 21.39257812 C-84.13148041 21.20847382 -83.50099792 21.02436951 -82.85140991 20.83468628 C-80.87045065 20.25621424 -78.89421243 19.66368841 -76.91870117 19.06689453 C-74.21326214 18.24996672 -71.50650693 17.43764453 -68.79882812 16.62817383 C-63.20364258 14.9485395 -57.63913073 13.17457006 -52.07763672 11.38696289 C-51.07498779 11.0655835 -50.07233887 10.7442041 -49.03930664 10.41308594 C-39.61885071 7.38267113 -30.22978527 4.25886678 -20.84716797 1.11352539 C-19.5393335 0.68088379 -19.5393335 0.68088379 -18.20507812 0.23950195 C-16.33445918 -0.39889953 -14.48826083 -1.10858179 -12.65185547 -1.83959961 C-8.02537624 -3.03057446 -4.18248958 -2.24387492 0 0 Z " fill="#4D4D4D" transform="translate(331.89013671875,106.550537109375)"/>
<path d="M0 0 C1.68546247 1.52109505 3.35003195 3.06547465 5 4.625 C7.67414325 6.46205015 10.43529823 8.15775411 13.1875 9.875 C15.5743468 11.37505898 17.76050469 12.89626678 20 14.625 C20 15.615 20 16.605 20 17.625 C11.28002758 20.40765097 2.55988828 23.18977822 -6.1604538 25.97127056 C-10.21137794 27.26339483 -14.26224832 28.55568709 -18.31298828 29.84838867 C-22.23566095 31.10021321 -26.1584847 32.35156333 -30.08140564 33.60260963 C-31.56425666 34.0755875 -33.04705678 34.54872501 -34.52980042 35.02203941 C-35.58777077 35.35974326 -35.58777077 35.35974326 -36.66711426 35.70426941 C-37.36247032 35.92632459 -38.05782639 36.14837976 -38.77425385 36.37716389 C-40.14568088 36.81375007 -41.51774782 37.24833178 -42.89048004 37.68079662 C-46.39031305 38.78406131 -49.87572515 39.91713487 -53.34887695 41.10195923 C-54.06224464 41.3394605 -54.77561234 41.57696177 -55.51059723 41.82166004 C-56.8590323 42.27081582 -58.20383618 42.7311019 -59.5437851 43.20497417 C-64.74886762 44.91448369 -69.17123263 44.8337425 -74.22827148 42.67285156 C-74.85290283 42.2909668 -75.47753418 41.90908203 -76.12109375 41.515625 C-76.82943359 41.09023437 -77.53777344 40.66484375 -78.26757812 40.2265625 C-78.98365234 39.78054687 -79.69972656 39.33453125 -80.4375 38.875 C-81.14970703 38.44445312 -81.86191406 38.01390625 -82.59570312 37.5703125 C-84.73968322 36.26951441 -86.87157518 34.95107905 -89 33.625 C-89.7645752 33.14869141 -90.52915039 32.67238281 -91.31689453 32.18164062 C-93.21261085 30.99822626 -95.10701654 29.81277934 -97 28.625 C-94.26039801 26.79859867 -92.22016082 25.90711927 -89.13671875 24.8828125 C-88.12383789 24.54499756 -87.11095703 24.20718262 -86.06738281 23.85913086 C-84.39434082 23.31011108 -84.39434082 23.31011108 -82.6875 22.75 C-80.92744629 22.16714233 -80.92744629 22.16714233 -79.13183594 21.57250977 C-71.95946565 19.21142753 -64.76939738 16.91037914 -57.56640625 14.64453125 C-56.36026672 14.26470848 -56.36026672 14.26470848 -55.12976074 13.87721252 C-51.03022995 12.5879057 -46.92818229 11.30753035 -42.82177734 10.0402832 C-35.73669779 7.84214822 -28.73381788 5.60230049 -21.84765625 2.8359375 C-5.85318152 -3.58306191 -5.85318152 -3.58306191 0 0 Z " fill="#BED0FD" transform="translate(241,134.375)"/>
<path d="M0 0 C5.32016345 4.04332423 7.13337903 7.60791189 8.23046875 14.08984375 C8.48606567 15.5747229 8.48606567 15.5747229 8.74682617 17.08959961 C8.87162354 17.84378174 8.9964209 18.59796387 9.125 19.375 C4.29169902 20.99448073 -0.54232027 22.61179457 -5.37695312 24.22729492 C-7.01386014 24.77458371 -8.65058576 25.32241543 -10.28710938 25.87084961 C-15.03660393 27.46228037 -19.78993125 29.04131325 -24.54833984 30.605896 C-26.0970963 31.11785508 -27.64431576 31.63448789 -29.18994141 32.15582275 C-31.3731802 32.89213097 -33.56083852 33.61355739 -35.75 34.33203125 C-36.72175171 34.66578011 -36.72175171 34.66578011 -37.71313477 35.00627136 C-41.49979261 36.22882143 -44.09502255 36.70465185 -47.875 35.375 C-50.62988281 33.82446289 -50.62988281 33.82446289 -53.578125 31.84765625 C-54.6403125 31.13802734 -55.7025 30.42839844 -56.796875 29.69726562 C-57.34279297 29.32641846 -57.88871094 28.95557129 -58.45117188 28.57348633 C-60.12773013 27.43564713 -61.81300565 26.31174573 -63.5 25.18945312 C-71.73807849 19.64884302 -71.73807849 19.64884302 -72.875 17.375 C-66.54912036 15.22086353 -60.2082454 13.11455782 -53.85968018 11.02825928 C-51.67638897 10.309627 -49.49424949 9.58754717 -47.31201172 8.86572266 C-43.12479981 7.48324365 -38.93185492 6.1192243 -34.73565674 4.76428223 C-33.0472492 4.21645669 -31.36048555 3.66353652 -29.67547607 3.10534668 C-8.10553608 -4.02904298 -8.10553608 -4.02904298 0 0 Z " fill="#BED0FD" transform="translate(398.875,85.625)"/>
<path d="M0 0 C1.37893181 -0.0131424 1.37893181 -0.0131424 2.78572083 -0.02655029 C5.81921834 -0.04852586 8.85125374 -0.03399783 11.88476562 -0.01708984 C13.99556762 -0.0204585 16.10636773 -0.02531153 18.21716309 -0.03158569 C22.6389413 -0.03895454 27.06021417 -0.02825076 31.48193359 -0.00488281 C37.14837619 0.02360455 42.81363472 0.00720071 48.48003387 -0.02274513 C52.83812371 -0.04081751 57.19593306 -0.03506026 61.55403137 -0.02210617 C63.64321533 -0.01877202 65.73242481 -0.02285955 67.82157898 -0.03450394 C70.74241531 -0.04721133 73.66133743 -0.0278367 76.58203125 0 C77.44451981 -0.01012115 78.30700836 -0.02024231 79.19563293 -0.03067017 C83.58541421 0.04679249 85.27809894 0.24215647 88.84094238 3.05410767 C90.79101562 5.64697266 90.79101562 5.64697266 91.20117188 7.77978516 C91.08644531 8.43720703 90.97171875 9.09462891 90.85351562 9.77197266 C90.71623047 10.76583984 90.71623047 10.76583984 90.57617188 11.77978516 C89.43640997 14.49026371 88.38273558 15.19696192 85.79101562 16.64697266 C82.76230778 17.1066354 79.75433622 17.07724465 76.69555664 17.06689453 C75.77641479 17.07536407 74.85727295 17.08383362 73.91027832 17.09255981 C70.87168546 17.11596052 67.83359803 17.11695125 64.79492188 17.11572266 C62.68269141 17.12282226 60.57046289 17.13052096 58.45823669 17.13879395 C54.03061563 17.15224575 49.6031729 17.15380429 45.17553711 17.14794922 C39.50128769 17.14205189 33.82789351 17.17264331 28.15380955 17.2130661 C23.79147226 17.23891361 19.42934171 17.24182319 15.0669384 17.23817444 C12.97494291 17.23986838 10.88293814 17.24953714 8.79101753 17.26731873 C5.86538548 17.28945034 2.94149515 17.27983591 0.01586914 17.26220703 C-0.84819046 17.27547028 -1.71225006 17.28873352 -2.60249329 17.30239868 C-6.95869618 17.24139726 -8.69078209 17.04805001 -12.24647522 14.29602051 C-14.20898438 11.64697266 -14.20898438 11.64697266 -14.83398438 8.64697266 C-13.12267473 0.43268638 -7.09728714 -0.08328544 0 0 Z " fill="#656667" transform="translate(82.208984375,423.35302734375)"/>
</svg>
